<?xml version="1.0" encoding="UTF-8" standalone="no"?>
<svg
   xmlns:dc="http://purl.org/dc/elements/1.1/"
   xmlns:cc="http://creativecommons.org/ns#"
   xmlns:rdf="http://www.w3.org/1999/02/22-rdf-syntax-ns#"
   xmlns:svg="http://www.w3.org/2000/svg"
   xmlns="http://www.w3.org/2000/svg"
   xmlns:sodipodi="http://sodipodi.sourceforge.net/DTD/sodipodi-0.dtd"
   xmlns:inkscape="http://www.inkscape.org/namespaces/inkscape"
   height="88"
   width="74"
   id="svg2"
   version="1.1"
   inkscape:version="0.48.3.1 r9886"
   sodipodi:docname="KWAndroidDevelopersLogo.svg"
   inkscape:export-filename="/home/nbyoung/Personal/KWAndroid/KWAndroidDevelopers.png"
   inkscape:export-xdpi="331.88"
   inkscape:export-ydpi="331.88">
  <metadata
     id="metadata16">
    <rdf:RDF>
      <cc:Work
         rdf:about="">
        <dc:format>image/svg+xml</dc:format>
        <dc:type
           rdf:resource="http://purl.org/dc/dcmitype/StillImage" />
        <dc:title />
      </cc:Work>
    </rdf:RDF>
  </metadata>
  <defs
     id="defs14">
    <inkscape:perspective
       sodipodi:type="inkscape:persp3d"
       inkscape:vp_x="0 : 44 : 1"
       inkscape:vp_y="0 : 1000 : 0"
       inkscape:vp_z="74 : 44 : 1"
       inkscape:persp3d-origin="37 : 29.333333 : 1"
       id="perspective18" />
  </defs>
  <sodipodi:namedview
     pagecolor="#ffffff"
     bordercolor="#666666"
     borderopacity="1"
     objecttolerance="10"
     gridtolerance="10"
     guidetolerance="10"
     inkscape:pageopacity="1"
     inkscape:pageshadow="2"
     inkscape:window-width="1320"
     inkscape:window-height="918"
     id="namedview12"
     showgrid="false"
     inkscape:zoom="3.7926636"
     inkscape:cx="34.753261"
     inkscape:cy="70.974558"
     inkscape:window-x="297"
     inkscape:window-y="75"
     inkscape:window-maximized="0"
     inkscape:current-layer="svg2" />
  <path
     style="font-size:medium;font-style:normal;font-variant:normal;font-weight:normal;font-stretch:normal;text-indent:0;text-align:start;text-decoration:none;line-height:normal;letter-spacing:normal;word-spacing:normal;text-transform:none;direction:ltr;block-progression:tb;writing-mode:lr-tb;text-anchor:start;color:#000000;fill:#a4c639;fill-opacity:1;fill-rule:nonzero;stroke:#a4c639;stroke-width:0.5;stroke-miterlimit:4;stroke-opacity:1;stroke-dasharray:none;marker:none;visibility:visible;display:inline;overflow:visible;enable-background:accumulate;font-family:AlArabiya;-inkscape-font-specification:AlArabiya"
     d="m 21.017192,23.5 c -0.327152,0.186397 -0.46875,0.564751 -0.46875,0.8125 0,0.247749 0.09375,0.4375 0.09375,0.4375 l 0.03125,0.03125 0.125,0.28125 0.03125,0 3.65625,6.34375 c -7.286457,3.769284 -12.25,10.886154 -12.25,19.0625 l 0,0.5 0.5,0 23.65625,0 23.65625,0 0.5,0 0,-0.5 c 0,-8.162329 -4.952592,-15.256868 -12.21875,-19.03125 l 3.8125,-6.65625 0.03125,-0.03125 c 0,0 0.08857,-0.18948 0.09375,-0.4375 0.0052,-0.24802 -0.142164,-0.623837 -0.46875,-0.8125 -0.331056,-0.191006 -0.724735,-0.126407 -0.9375,0 -0.212765,0.126407 -0.34375,0.3125 -0.34375,0.3125 l 0,0.03125 -3.90625,6.78125 c -3.107065,-1.321858 -6.565291,-2.09375 -10.21875,-2.09375 -3.652811,0 -7.081223,0.772451 -10.1875,2.09375 l -3.90625,-6.78125 0,-0.03125 c 0,0 -0.100636,-0.182145 -0.3125,-0.3125 -0.211864,-0.130355 -0.639248,-0.188097 -0.96875,0 z m 30.25,0.78125 0.03125,0 0,0.03125 -0.03125,0 0,-0.03125 z m -14.875,5.25 c 3.663411,0 7.141027,0.755261 10.21875,2.125 l 0.40625,0.1875 0,-0.03125 0.40625,0.21875 c 7.085727,3.475782 11.856762,10.211597 12.0625,17.9375 l -23.09375,0 -23.09375,0 c 0.205738,-7.726091 4.976774,-14.461814 12.0625,-17.9375 l 0.4375,-0.21875 0,0.03125 0.40625,-0.1875 c 3.077404,-1.369727 6.523886,-2.125 10.1875,-2.125 z m -11.25,8.15625 c -1.511244,0 -2.75,1.238735 -2.75,2.75 0,1.511265 1.247146,2.71875 2.75,2.71875 1.502859,0 2.749988,-1.207505 2.75,-2.71875 0,-1.511249 -1.238751,-2.75 -2.75,-2.75 z m 22.5,0 c -1.511244,0 -2.75,1.238735 -2.75,2.75 0,1.511265 1.247146,2.71875 2.75,2.71875 1.502859,0 2.749988,-1.207505 2.75,-2.71875 0,-1.511249 -1.238751,-2.75 -2.75,-2.75 z m -22.5,1 c 0.967751,0 1.75,0.782249 1.75,1.75 -8e-6,0.967755 -0.773859,1.71875 -1.75,1.71875 -0.976146,0 -1.75,-0.750975 -1.75,-1.71875 0,-0.967775 0.782244,-1.75 1.75,-1.75 z m 22.5,0 c 0.967751,0 1.75,0.782249 1.75,1.75 -8e-6,0.967755 -0.773859,1.71875 -1.75,1.71875 -0.976146,0 -1.75,-0.750975 -1.75,-1.71875 0,-0.967775 0.782244,-1.75 1.75,-1.75 z"
     id="path4"
     inkscape:export-filename="/home/nbyoung/tmp/KWAndroidDevelopers420x420.png"
     inkscape:export-xdpi="774.39001"
     inkscape:export-ydpi="774.39001" />
  <flowRoot
     xml:space="preserve"
     id="flowRoot3618"
     style="font-size:11px;font-style:normal;font-variant:normal;font-weight:bold;font-stretch:normal;text-align:center;text-anchor:middle;fill:#30587c;fill-opacity:1;stroke:none;font-family:Sans;-inkscape-font-specification:AlArabiya Bold"
     transform="translate(-6.0729024,0.74221474)"
     inkscape:export-filename="/home/nbyoung/tmp/KWAndroidDevelopers420x420.png"
     inkscape:export-xdpi="774.39001"
     inkscape:export-ydpi="774.39001"><flowRegion
       id="flowRegion3620"><rect
         id="rect3622"
         width="39.681873"
         height="17.006516"
         x="23.334524"
         y="14.700592"
         style="font-size:11px;font-style:normal;font-variant:normal;font-weight:bold;font-stretch:normal;text-align:center;text-anchor:middle;fill:#30587c;fill-opacity:1;font-family:Sans;-inkscape-font-specification:AlArabiya Bold" /></flowRegion><flowPara
       id="flowPara3624"
       style="font-size:11px;font-weight:bold;-inkscape-font-specification:AlArabiya Bold;fill:#30587c;fill-opacity:1">KW</flowPara></flowRoot>  <flowRoot
     xml:space="preserve"
     id="flowRoot3626"
     style="font-size:8.4px;font-style:normal;font-variant:normal;font-weight:bold;font-stretch:normal;fill:#30587c;fill-opacity:1;stroke:none;font-family:Sans;-inkscape-font-specification:AlArabiya Bold"
     transform="translate(-0.45985878,-1.8456686)"
     inkscape:export-filename="/home/nbyoung/tmp/KWAndroidDevelopers420x420.png"
     inkscape:export-xdpi="774.39001"
     inkscape:export-ydpi="774.39001"><flowRegion
       id="flowRegion3628"><rect
         id="rect3630"
         width="54.447224"
         height="11.205844"
         x="11.865012"
         y="52.932297"
         style="font-size:8.4px;font-style:normal;font-variant:normal;font-weight:bold;font-stretch:normal;fill:#30587c;fill-opacity:1;font-family:Sans;-inkscape-font-specification:AlArabiya Bold"
         ry="0" /></flowRegion><flowPara
       id="flowPara2991">SKETCHER</flowPara></flowRoot>  <g
     id="g4948"
     transform="translate(-41.132042,-3.4276702)">
    <path
       inkscape:connector-curvature="0"
       id="path3707"
       d="m 98.95443,26.500754 -1.807586,2.876201 2.206995,2.197171 1.929251,-3.069793 -2.32866,-2.003579 z"
       style="fill:none;stroke:#000000;stroke-width:0.09238739px;stroke-linecap:butt;stroke-linejoin:miter;stroke-opacity:1" />
    <path
       inkscape:connector-curvature="0"
       id="path3687"
       d="m 99.552094,24.286296 c 1.218806,0.765973 2.132446,1.721879 2.596426,2.569486 0.46399,0.847607 0.47365,1.460067 0.20771,1.883235 l -11.033319,17.556031 -8.526645,4.65285 0.494187,-9.700952 11.033314,-17.556032 c 0.265945,-0.423167 0.821991,-0.6801 1.786965,-0.629658 0.964974,0.05044 2.222556,0.459065 3.441362,1.22504 z"
       style="color:#000000;fill:#ffcb99;fill-opacity:1;fill-rule:nonzero;stroke:none;stroke-width:7.4000001;marker:none;visibility:visible;display:inline;overflow:visible;enable-background:accumulate" />
    <path
       inkscape:connector-curvature="0"
       id="path3640"
       d="m 98.029589,26.582589 c -1.218806,-0.765975 -2.477921,-1.172152 -3.442898,-1.222596 -0.964977,-0.05044 -1.52102,0.206492 -1.786966,0.629659 l -0.769658,1.224669 c 0.143601,-0.0041 0.288519,-0.0041 0.434252,0.0035 1.335528,0.06981 2.818693,0.58479 4.240399,1.478279 1.421705,0.89349 2.526569,2.00499 3.168726,3.17808 0.07017,0.128191 0.132826,0.258413 0.191526,0.389751 l 0.76966,-1.224668 c 0.26594,-0.423168 0.25384,-1.037162 -0.21015,-1.884771 -0.46399,-0.847609 -1.376093,-1.805962 -2.594891,-2.571931 z"
       style="fill:#c8cfd1;fill-opacity:1;stroke:none" />
    <path
       inkscape:connector-curvature="0"
       d="M 99.088421,25.021358 C 97.63904,24.110475 96.128269,23.58313 94.742213,23.51068 c -1.386057,-0.07245 -2.760402,0.360935 -3.483048,1.510798 l 11.227345,7.055973 c 0.72265,-1.149864 0.51706,-2.576181 -0.1494,-3.79366 -0.66645,-1.217475 -1.79932,-2.351556 -3.248689,-3.262433 z m -1.003168,1.596225 c 1.218798,0.765969 2.130897,1.724319 2.594887,2.571928 0.46399,0.847609 0.4761,1.461607 0.21015,1.884773 l -8.034904,-5.04964 c 0.265945,-0.423168 0.821987,-0.680102 1.786965,-0.629658 0.964978,0.05044 2.224096,0.456623 3.442902,1.222597 z m 2.469297,-3.927894 c -1.449373,-0.910878 -2.960144,-1.438224 -4.346202,-1.510676 -1.38606,-0.07245 -2.760406,0.360934 -3.483053,1.510796 l -11.162358,17.761366 -0.130581,0.207778 -0.015,0.24632 -0.59202,11.630863 -0.08528,1.682054 1.478617,-0.806394 10.223147,-5.578057 0.217884,-0.118812 0.130581,-0.207779 11.162365,-17.761365 c 0.72264,-1.149863 0.51705,-2.57618 -0.1494,-3.793657 -0.66646,-1.217476 -1.79933,-2.35156 -3.2487,-3.262438 z m -1.004702,1.59867 c 1.218802,0.765974 2.132442,1.721879 2.596422,2.569486 0.46399,0.847607 0.4761,1.461604 0.21015,1.884771 L 91.326182,46.293759 82.794019,50.949962 83.288207,41.24901 94.321521,23.692978 c 0.265945,-0.423167 0.82199,-0.6801 1.786965,-0.629659 0.964975,0.05044 2.222555,0.459065 3.441362,1.22504 z"
       style="font-size:medium;font-style:normal;font-variant:normal;font-weight:normal;font-stretch:normal;text-indent:0;text-align:start;text-decoration:none;line-height:normal;letter-spacing:normal;word-spacing:normal;text-transform:none;direction:ltr;block-progression:tb;writing-mode:lr-tb;text-anchor:start;color:#000000;fill:#003466;fill-opacity:1;stroke:none;stroke-width:20.41600037;marker:none;visibility:visible;display:inline;overflow:visible;enable-background:accumulate;font-family:'.PhonepadTwo';-inkscape-font-specification:'.PhonepadTwo'"
       id="path3765" />
    <path
       inkscape:connector-curvature="0"
       sodipodi:nodetypes="csccsccsccsc"
       id="path3605"
       d="m 96.760481,28.73096 c -1.421706,-0.893488 -2.904871,-1.408468 -4.240398,-1.478279 -1.335528,-0.06981 -2.611432,0.340922 -3.279273,1.40358 l 10.84602,6.81632 c 0.66784,-1.062658 0.48453,-2.39045 -0.157624,-3.563541 -0.642158,-1.17309 -1.747021,-2.284591 -3.168725,-3.17808 z m -0.761978,1.212447 c 1.246475,0.783363 2.184134,1.76276 2.672416,2.654753 0.488283,0.891993 0.521769,1.600534 0.201018,2.110906 L 90.4557,29.419774 c 0.320752,-0.510373 0.973702,-0.787514 1.989209,-0.734431 1.015506,0.05308 2.307118,0.474701 3.553594,1.258064 z"
       style="font-size:medium;font-style:normal;font-variant:normal;font-weight:normal;font-stretch:normal;text-indent:0;text-align:start;text-decoration:none;line-height:normal;letter-spacing:normal;word-spacing:normal;text-transform:none;direction:ltr;block-progression:tb;writing-mode:lr-tb;text-anchor:start;color:#000000;fill:#003264;fill-opacity:1;stroke:none;stroke-width:15.51599979;marker:none;visibility:visible;display:inline;overflow:visible;enable-background:accumulate;font-family:'.PhonepadTwo';-inkscape-font-specification:'.PhonepadTwo'" />
    <path
       inkscape:connector-curvature="0"
       id="path3637"
       d="m 99.569409,24.300653 c -1.218806,-0.765975 -2.476387,-1.174599 -3.441361,-1.22504 -0.811389,-0.04241 -1.331218,0.133816 -1.635013,0.442131 0.08984,4e-4 0.17918,8e-4 0.269295,0.0056 1.386057,0.07245 2.896823,0.599794 4.346206,1.510676 1.449374,0.910879 2.582244,2.044965 3.248694,3.262438 0.0433,0.07916 0.085,0.160983 0.12426,0.24177 0.14605,-0.407458 0.0769,-0.953819 -0.31321,-1.666519 -0.46398,-0.847607 -1.38007,-1.805049 -2.598871,-2.571023 z"
       style="fill:#ff9596;fill-opacity:1;stroke:none" />
    <path
       inkscape:connector-curvature="0"
       sodipodi:nodetypes="csccccccc"
       id="path3670"
       d="m 95.775194,29.82083 c -1.076362,-0.585355 -2.466581,-1.098081 -3.339043,-1.143686 -0.583107,-0.03048 -1.047803,0.04734 -1.39758,0.216258 l -0.400961,0.638 -1.272011,2.024004 -3.213825,5.113787 -2.746807,4.370675 c 1.688227,0.404037 3.630481,0.6866 5.670661,-0.558796 L 95.775194,29.82083 z"
       style="color:#000000;fill:#669acc;fill-opacity:1;fill-rule:nonzero;stroke:none;stroke-width:7.4000001;marker:none;visibility:visible;display:inline;overflow:visible;enable-background:accumulate" />
    <path
       inkscape:connector-curvature="0"
       sodipodi:nodetypes="csccccccc"
       style="color:#000000;fill:#9aceff;fill-opacity:1;fill-rule:nonzero;stroke:none;stroke-width:8;marker:none;visibility:visible;display:inline;overflow:visible;enable-background:accumulate"
       d="m 96.193204,30.064243 c 0.994277,0.715966 2.059242,1.746232 2.478745,2.512579 0.280374,0.512185 0.411801,0.964651 0.411311,1.353079 l -0.40096,0.638 -1.272012,2.024005 -3.213824,5.113787 -2.746807,4.370674 c -1.096285,-1.345925 -2.193295,-2.973428 -1.95602,-5.351882 l 6.699567,-10.660242 z"
       id="path3675" />
    <path
       style="color:#000000;fill:#a4c639;fill-opacity:1;fill-rule:nonzero;stroke:none;stroke-width:7;marker:none;visibility:visible;display:inline;overflow:visible;enable-background:accumulate"
       d="m 95.779539,29.813916 c -1.049606,-0.645401 -2.466582,-1.09808 -3.339043,-1.143686 -0.583107,-0.03048 -1.047803,0.04734 -1.397581,0.216257 l -0.40096,0.638002 -1.272011,2.024003 -3.213825,5.113787 -2.746808,4.370675 c 1.688227,0.404036 3.630483,0.686599 5.670661,-0.558796 l 6.699567,-10.660242 z"
       id="path3745"
       sodipodi:nodetypes="csccccccc"
       inkscape:connector-curvature="0" />
    <path
       id="path3747"
       d="m 96.188857,30.071158 c 1.034974,0.598798 2.059243,1.746231 2.478746,2.512577 0.280373,0.512187 0.411802,0.964652 0.411311,1.353079 l -0.400959,0.638002 -1.272012,2.024003 -3.213825,5.113787 -2.746807,4.370675 c -1.096285,-1.345925 -2.193296,-2.973428 -1.956019,-5.351882 l 6.699565,-10.660241 z"
       style="color:#000000;fill:#788a44;fill-opacity:1;fill-rule:nonzero;stroke:none;stroke-width:7;marker:none;visibility:visible;display:inline;overflow:visible;enable-background:accumulate"
       sodipodi:nodetypes="csccccccc"
       inkscape:connector-curvature="0" />
    <path
       inkscape:connector-curvature="0"
       sodipodi:nodetypes="cccc"
       id="path3749"
       d="m 81.052072,49.951487 -0.451065,4.660339 3.223396,-2.276233 c -0.454697,-1.47145 -1.338388,-2.244299 -2.772331,-2.384106 z"
       style="color:#000000;fill:#a4c639;fill-opacity:1;fill-rule:nonzero;stroke:none;stroke-width:7.4000001;marker:none;visibility:visible;display:inline;overflow:visible;enable-background:accumulate" />
    <path
       inkscape:connector-curvature="0"
       sodipodi:nodetypes="ccccccccccc"
       id="path3802"
       d="m 95.783427,29.806474 -6.719324,10.691679 c -1.750266,1.042065 -3.392279,0.90758 -4.918784,0.577804 l -0.703792,-0.147933 -0.33229,0.581149 0.438591,0.105141 c 1.709635,0.409161 3.776491,0.706917 5.913136,-0.597365 l 0.06467,-0.03779 0.04148,-0.066 6.763875,-10.762568 -0.547557,-0.344119 z"
       style="font-size:medium;font-style:normal;font-variant:normal;font-weight:normal;font-stretch:normal;text-indent:0;text-align:start;text-decoration:none;line-height:normal;letter-spacing:normal;word-spacing:normal;text-transform:none;direction:ltr;block-progression:tb;writing-mode:lr-tb;text-anchor:start;color:#000000;fill:#003466;fill-opacity:1;stroke:none;stroke-width:7;marker:none;visibility:visible;display:inline;overflow:visible;enable-background:accumulate;font-family:'.PhonepadTwo';-inkscape-font-specification:'.PhonepadTwo'" />
    <path
       inkscape:connector-curvature="0"
       style="font-size:medium;font-style:normal;font-variant:normal;font-weight:normal;font-stretch:normal;text-indent:0;text-align:start;text-decoration:none;line-height:normal;letter-spacing:normal;word-spacing:normal;text-transform:none;direction:ltr;block-progression:tb;writing-mode:lr-tb;text-anchor:start;color:#000000;fill:#003466;fill-opacity:1;stroke:none;stroke-width:7;marker:none;visibility:visible;display:inline;overflow:visible;enable-background:accumulate;font-family:'.PhonepadTwo';-inkscape-font-specification:'.PhonepadTwo'"
       d="M 96.398175,30.192821 89.678852,40.8845 c -0.179809,2.029039 0.653554,3.450235 1.612783,4.682651 l 0.438548,0.569986 -0.379518,0.551467 -0.284966,-0.349586 c -1.110187,-1.362993 -2.274929,-3.096177 -2.026434,-5.58709 l 0.006,-0.07466 0.04148,-0.066 6.763875,-10.762568 0.547557,0.344119 z"
       id="path3808"
       sodipodi:nodetypes="ccccccccccc" />
    <path
       inkscape:connector-curvature="0"
       id="path4456"
       d="m 94.835226,25.408785 -1.46665,1.943022 c 0.845187,0.148078 1.730139,0.455004 2.607056,0.909438 L 97.32968,26.173868 C 96.437178,25.72829 95.562092,25.472092 94.835226,25.408785 z"
       style="fill:#ffffff;fill-opacity:1;stroke:none" />
  </g>
</svg>
